<?xml version="1.0" encoding="UTF-8"?>
<svg xmlns="http://www.w3.org/2000/svg" xmlns:xlink="http://www.w3.org/1999/xlink" width="44px" height="44px" viewBox="0 0 44 44" version="1.1">
<g id="surface1">
<path style=" stroke:none;fill-rule:nonzero;fill:rgb(0.392157%,65.882353%,95.294118%);fill-opacity:1;" d="M 6.671875 -0.0234375 C 6.789062 -0.0234375 6.90625 -0.0234375 7.023438 -0.0234375 C 7.347656 -0.0234375 7.667969 -0.0234375 7.992188 -0.0234375 C 8.339844 -0.0234375 8.6875 -0.0273438 9.035156 -0.0273438 C 9.714844 -0.0273438 10.398438 -0.0273438 11.078125 -0.0273438 C 11.632812 -0.0273438 12.1875 -0.0273438 12.738281 -0.03125 C 14.3125 -0.03125 15.886719 -0.03125 17.457031 -0.03125 C 17.585938 -0.03125 17.585938 -0.03125 17.714844 -0.03125 C 17.800781 -0.03125 17.882812 -0.03125 17.972656 -0.03125 C 19.34375 -0.03125 20.71875 -0.0351562 22.09375 -0.0351562 C 23.503906 -0.0390625 24.917969 -0.0390625 26.328125 -0.0390625 C 27.121094 -0.0390625 27.914062 -0.0390625 28.703125 -0.0429688 C 29.378906 -0.0429688 30.054688 -0.0429688 30.726562 -0.0429688 C 31.070312 -0.0429688 31.414062 -0.0429688 31.757812 -0.0429688 C 32.074219 -0.0429688 32.390625 -0.0429688 32.707031 -0.0429688 C 32.871094 -0.0429688 33.039062 -0.0429688 33.207031 -0.046875 C 34.238281 -0.0390625 35.242188 0.1875 36.152344 0.691406 C 36.242188 0.742188 36.242188 0.742188 36.335938 0.792969 C 36.941406 1.136719 37.425781 1.558594 37.898438 2.0625 C 37.960938 2.128906 38.023438 2.195312 38.089844 2.265625 C 38.441406 2.667969 38.703125 3.105469 38.953125 3.578125 C 38.992188 3.652344 38.992188 3.652344 39.035156 3.730469 C 39.691406 5.058594 39.660156 6.421875 39.640625 7.863281 C 39.636719 8.058594 39.636719 8.257812 39.632812 8.453125 C 39.628906 8.929688 39.625 9.40625 39.617188 9.882812 C 39.667969 9.898438 39.722656 9.914062 39.773438 9.933594 C 39.84375 9.957031 39.914062 9.976562 39.984375 10 C 40.050781 10.023438 40.121094 10.042969 40.191406 10.066406 C 40.488281 10.175781 40.742188 10.335938 41.003906 10.511719 C 41.054688 10.546875 41.105469 10.582031 41.160156 10.617188 C 42.652344 11.617188 43.527344 13.066406 43.960938 14.796875 C 44.011719 15.117188 44.011719 15.429688 44.011719 15.75 C 44.011719 15.824219 44.011719 15.894531 44.011719 15.96875 C 44.015625 16.207031 44.015625 16.445312 44.015625 16.683594 C 44.015625 16.855469 44.015625 17.027344 44.015625 17.199219 C 44.019531 17.761719 44.019531 18.324219 44.019531 18.890625 C 44.019531 19.082031 44.019531 19.277344 44.023438 19.472656 C 44.023438 20.386719 44.023438 21.300781 44.023438 22.210938 C 44.027344 23.265625 44.027344 24.316406 44.03125 25.371094 C 44.035156 26.183594 44.035156 27 44.035156 27.8125 C 44.035156 28.296875 44.035156 28.785156 44.039062 29.269531 C 44.039062 29.726562 44.042969 30.1875 44.039062 30.644531 C 44.039062 30.8125 44.039062 30.976562 44.042969 31.144531 C 44.054688 33.0625 43.585938 34.640625 42.28125 36.09375 C 42.214844 36.171875 42.214844 36.171875 42.148438 36.253906 C 41.171875 37.328125 39.554688 38.082031 38.113281 38.167969 C 37.53125 38.1875 36.949219 38.179688 36.367188 38.171875 C 36.191406 38.171875 36.011719 38.167969 35.835938 38.167969 C 35.40625 38.167969 34.976562 38.160156 34.546875 38.15625 C 34.546875 38.238281 34.546875 38.238281 34.546875 38.320312 C 34.554688 38.886719 34.558594 39.457031 34.5625 40.023438 C 34.5625 40.234375 34.5625 40.445312 34.566406 40.65625 C 34.570312 40.960938 34.570312 41.265625 34.570312 41.570312 C 34.574219 41.664062 34.574219 41.757812 34.574219 41.855469 C 34.578125 42.472656 34.542969 43.089844 34.136719 43.582031 C 34.085938 43.621094 34.035156 43.660156 33.984375 43.699219 C 33.929688 43.738281 33.878906 43.777344 33.828125 43.820312 C 33.40625 44.101562 32.96875 44.085938 32.484375 44 C 31.988281 43.765625 31.554688 43.457031 31.109375 43.140625 C 30.953125 43.03125 30.792969 42.921875 30.636719 42.8125 C 30.296875 42.578125 29.957031 42.339844 29.617188 42.105469 C 29.207031 41.816406 28.789062 41.535156 28.371094 41.253906 C 27.660156 40.785156 26.960938 40.308594 26.257812 39.832031 C 26.089844 39.714844 25.917969 39.601562 25.742188 39.488281 C 25.527344 39.34375 25.34375 39.191406 25.152344 39.015625 C 23.9375 37.957031 22.5 38.105469 20.984375 38.132812 C 20.605469 38.136719 20.226562 38.136719 19.847656 38.136719 C 19.128906 38.136719 18.414062 38.140625 17.695312 38.148438 C 16.410156 38.164062 15.128906 38.167969 13.84375 38.167969 C 13.394531 38.171875 12.945312 38.175781 12.496094 38.179688 C 12.214844 38.183594 11.933594 38.183594 11.652344 38.183594 C 11.527344 38.1875 11.398438 38.1875 11.269531 38.191406 C 10.125 38.210938 8.988281 38.042969 7.964844 37.496094 C 7.910156 37.464844 7.851562 37.4375 7.792969 37.40625 C 6.136719 36.511719 5.105469 35.046875 4.546875 33.289062 C 4.386719 32.695312 4.367188 32.125 4.355469 31.511719 C 4.355469 31.421875 4.351562 31.328125 4.351562 31.230469 C 4.34375 30.9375 4.339844 30.640625 4.335938 30.347656 C 4.332031 30.144531 4.328125 29.945312 4.324219 29.746094 C 4.3125 29.253906 4.304688 28.765625 4.296875 28.273438 C 4.203125 28.226562 4.109375 28.183594 4.011719 28.136719 C 3.886719 28.074219 3.765625 28.011719 3.640625 27.953125 C 3.578125 27.921875 3.515625 27.890625 3.453125 27.859375 C 2.929688 27.601562 2.492188 27.292969 2.0625 26.898438 C 2.007812 26.851562 1.953125 26.800781 1.898438 26.75 C 0.835938 25.75 0.046875 24.214844 -0.0234375 22.746094 C -0.0390625 22.296875 -0.0351562 21.851562 -0.0351562 21.402344 C -0.0351562 21.230469 -0.0351562 21.058594 -0.0351562 20.886719 C -0.0390625 20.425781 -0.0390625 19.960938 -0.0390625 19.496094 C -0.0390625 19.109375 -0.0390625 18.722656 -0.0390625 18.332031 C -0.0390625 17.417969 -0.0390625 16.5 -0.0390625 15.582031 C -0.0390625 14.640625 -0.0390625 13.699219 -0.0390625 12.753906 C -0.0429688 11.941406 -0.0429688 11.132812 -0.0429688 10.320312 C -0.0429688 9.835938 -0.0429688 9.351562 -0.0429688 8.867188 C -0.046875 8.410156 -0.046875 7.957031 -0.0429688 7.5 C -0.0429688 7.335938 -0.0429688 7.167969 -0.0429688 7.003906 C -0.0546875 5.148438 0.355469 3.5625 1.632812 2.148438 C 1.691406 2.082031 1.746094 2.019531 1.804688 1.949219 C 3.097656 0.5625 4.804688 -0.0273438 6.671875 -0.0234375 Z M 6.671875 -0.0234375 "/>
<path style=" stroke:none;fill-rule:nonzero;fill:rgb(99.215686%,87.058824%,0%);fill-opacity:1;" d="M 39.617188 11.515625 C 39.726562 11.570312 39.835938 11.621094 39.945312 11.675781 C 40.007812 11.707031 40.066406 11.734375 40.132812 11.765625 C 40.53125 11.980469 40.84375 12.316406 41.164062 12.632812 C 41.210938 12.675781 41.261719 12.722656 41.308594 12.769531 C 41.628906 13.097656 41.835938 13.492188 42.046875 13.894531 C 42.074219 13.949219 42.105469 14.003906 42.132812 14.058594 C 42.625 15.046875 42.566406 16.167969 42.5625 17.242188 C 42.566406 17.402344 42.566406 17.5625 42.566406 17.722656 C 42.566406 18.152344 42.566406 18.582031 42.566406 19.015625 C 42.566406 19.285156 42.566406 19.554688 42.570312 19.824219 C 42.570312 20.769531 42.570312 21.710938 42.570312 22.65625 C 42.570312 23.53125 42.574219 24.410156 42.574219 25.285156 C 42.578125 26.039062 42.578125 26.796875 42.578125 27.550781 C 42.578125 28 42.578125 28.449219 42.582031 28.902344 C 42.582031 29.324219 42.582031 29.746094 42.582031 30.171875 C 42.582031 30.324219 42.582031 30.480469 42.582031 30.632812 C 42.59375 32.316406 42.300781 33.863281 41.109375 35.132812 C 40.714844 35.535156 40.285156 35.828125 39.789062 36.09375 C 39.726562 36.128906 39.664062 36.160156 39.597656 36.195312 C 38.335938 36.8125 36.984375 36.734375 35.617188 36.726562 C 35.355469 36.726562 35.09375 36.726562 34.828125 36.730469 C 34.75 36.726562 34.667969 36.726562 34.585938 36.726562 C 34.128906 36.730469 33.820312 36.785156 33.464844 37.085938 C 32.984375 37.582031 33.046875 38.179688 33.042969 38.828125 C 33.039062 38.9375 33.039062 39.042969 33.039062 39.152344 C 33.03125 39.488281 33.03125 39.828125 33.027344 40.164062 C 33.023438 40.394531 33.019531 40.625 33.019531 40.855469 C 33.011719 41.414062 33.003906 41.976562 33 42.539062 C 32.847656 42.441406 32.699219 42.347656 32.546875 42.25 C 32.464844 42.199219 32.378906 42.144531 32.292969 42.089844 C 32.003906 41.90625 31.722656 41.714844 31.441406 41.519531 C 31.324219 41.4375 31.203125 41.355469 31.085938 41.273438 C 31.019531 41.226562 30.957031 41.183594 30.890625 41.136719 C 30.105469 40.597656 29.316406 40.066406 28.53125 39.53125 C 28.476562 39.492188 28.421875 39.457031 28.367188 39.417969 C 28.015625 39.183594 27.667969 38.945312 27.316406 38.707031 C 27.207031 38.632812 27.09375 38.554688 26.980469 38.480469 C 26.664062 38.265625 26.347656 38.050781 26.03125 37.835938 C 25.917969 37.761719 25.804688 37.683594 25.691406 37.605469 C 25.511719 37.488281 25.335938 37.367188 25.160156 37.25 C 25.105469 37.210938 25.050781 37.175781 24.992188 37.136719 C 24.566406 36.847656 24.289062 36.769531 23.777344 36.769531 C 23.722656 36.769531 23.667969 36.769531 23.609375 36.769531 C 23.425781 36.765625 23.238281 36.765625 23.054688 36.765625 C 22.921875 36.765625 22.789062 36.765625 22.652344 36.765625 C 22.367188 36.761719 22.082031 36.761719 21.792969 36.761719 C 21.339844 36.761719 20.886719 36.757812 20.433594 36.757812 C 19.140625 36.75 17.847656 36.746094 16.558594 36.742188 C 15.84375 36.738281 15.132812 36.734375 14.417969 36.730469 C 13.96875 36.730469 13.519531 36.726562 13.066406 36.726562 C 12.785156 36.726562 12.503906 36.722656 12.222656 36.722656 C 12.09375 36.722656 11.960938 36.722656 11.832031 36.722656 C 10.136719 36.71875 8.609375 36.40625 7.328125 35.210938 C 6.78125 34.628906 6.382812 33.914062 6.101562 33.171875 C 6.066406 33.082031 6.066406 33.082031 6.03125 32.992188 C 5.75 32.140625 5.816406 31.25 5.828125 30.363281 C 5.832031 29.785156 5.839844 29.210938 5.84375 28.617188 C 7.0625 28.617188 8.28125 28.617188 9.539062 28.617188 C 9.542969 28.957031 9.542969 29.296875 9.546875 29.648438 C 9.550781 29.980469 9.554688 30.308594 9.558594 30.640625 C 9.558594 30.871094 9.5625 31.097656 9.5625 31.328125 C 9.5625 31.660156 9.566406 31.988281 9.574219 32.316406 C 9.574219 32.421875 9.574219 32.523438 9.574219 32.628906 C 9.582031 33.199219 9.621094 33.570312 9.96875 34.03125 C 10.347656 34.324219 10.691406 34.460938 11.175781 34.4375 C 11.78125 34.285156 12.296875 33.871094 12.804688 33.515625 C 12.871094 33.46875 12.9375 33.421875 13.003906 33.375 C 13.289062 33.179688 13.574219 32.980469 13.855469 32.78125 C 14.363281 32.421875 14.878906 32.070312 15.398438 31.726562 C 16.160156 31.222656 16.914062 30.710938 17.667969 30.199219 C 17.835938 30.082031 18.003906 29.96875 18.175781 29.859375 C 18.386719 29.71875 18.574219 29.5625 18.757812 29.390625 C 19.976562 28.332031 21.417969 28.480469 22.933594 28.507812 C 23.3125 28.511719 23.691406 28.511719 24.070312 28.511719 C 24.789062 28.511719 25.507812 28.515625 26.222656 28.523438 C 27.507812 28.539062 28.792969 28.542969 30.078125 28.542969 C 30.527344 28.546875 30.976562 28.550781 31.425781 28.554688 C 31.707031 28.558594 31.988281 28.558594 32.269531 28.558594 C 32.398438 28.5625 32.527344 28.5625 32.65625 28.566406 C 34.605469 28.597656 36.265625 27.914062 37.695312 26.59375 C 38.5 25.769531 39.046875 24.738281 39.359375 23.632812 C 39.375 23.578125 39.390625 23.523438 39.40625 23.46875 C 39.550781 22.886719 39.558594 22.324219 39.558594 21.730469 C 39.558594 21.621094 39.558594 21.507812 39.5625 21.394531 C 39.5625 21.09375 39.566406 20.792969 39.566406 20.492188 C 39.566406 20.175781 39.570312 19.859375 39.570312 19.542969 C 39.574219 18.945312 39.578125 18.347656 39.582031 17.75 C 39.585938 17.070312 39.589844 16.390625 39.59375 15.710938 C 39.601562 14.3125 39.609375 12.914062 39.617188 11.515625 Z M 39.617188 11.515625 "/>
<path style=" stroke:none;fill-rule:nonzero;fill:rgb(0%,0.392157%,0%);fill-opacity:1;" d="M 6.671875 -0.0234375 C 6.789062 -0.0234375 6.90625 -0.0234375 7.023438 -0.0234375 C 7.347656 -0.0234375 7.667969 -0.0234375 7.992188 -0.0234375 C 8.339844 -0.0234375 8.6875 -0.0273438 9.035156 -0.0273438 C 9.714844 -0.0273438 10.398438 -0.0273438 11.078125 -0.0273438 C 11.632812 -0.0273438 12.1875 -0.0273438 12.738281 -0.03125 C 14.3125 -0.03125 15.886719 -0.03125 17.457031 -0.03125 C 17.585938 -0.03125 17.585938 -0.03125 17.714844 -0.03125 C 17.800781 -0.03125 17.882812 -0.03125 17.972656 -0.03125 C 19.34375 -0.03125 20.71875 -0.0351562 22.09375 -0.0351562 C 23.503906 -0.0390625 24.917969 -0.0390625 26.328125 -0.0390625 C 27.121094 -0.0390625 27.914062 -0.0390625 28.703125 -0.0429688 C 29.378906 -0.0429688 30.054688 -0.0429688 30.726562 -0.0429688 C 31.070312 -0.0429688 31.414062 -0.0429688 31.757812 -0.0429688 C 32.074219 -0.0429688 32.390625 -0.0429688 32.707031 -0.0429688 C 32.871094 -0.0429688 33.039062 -0.0429688 33.207031 -0.046875 C 34.238281 -0.0390625 35.242188 0.1875 36.152344 0.691406 C 36.242188 0.742188 36.242188 0.742188 36.335938 0.792969 C 36.941406 1.136719 37.425781 1.558594 37.898438 2.0625 C 37.960938 2.128906 38.023438 2.195312 38.089844 2.265625 C 38.441406 2.667969 38.703125 3.105469 38.953125 3.578125 C 38.992188 3.652344 38.992188 3.652344 39.035156 3.730469 C 39.691406 5.058594 39.660156 6.421875 39.640625 7.863281 C 39.636719 8.058594 39.636719 8.257812 39.632812 8.453125 C 39.628906 8.929688 39.625 9.40625 39.617188 9.882812 C 39.667969 9.898438 39.722656 9.914062 39.773438 9.933594 C 39.84375 9.957031 39.914062 9.976562 39.984375 10 C 40.050781 10.023438 40.121094 10.042969 40.191406 10.066406 C 40.488281 10.175781 40.742188 10.335938 41.003906 10.511719 C 41.054688 10.546875 41.105469 10.582031 41.160156 10.617188 C 42.652344 11.617188 43.527344 13.066406 43.960938 14.796875 C 44.011719 15.117188 44.011719 15.429688 44.011719 15.75 C 44.011719 15.824219 44.011719 15.894531 44.011719 15.96875 C 44.015625 16.207031 44.015625 16.445312 44.015625 16.683594 C 44.015625 16.855469 44.015625 17.027344 44.015625 17.199219 C 44.019531 17.761719 44.019531 18.324219 44.019531 18.890625 C 44.019531 19.082031 44.019531 19.277344 44.023438 19.472656 C 44.023438 20.386719 44.023438 21.300781 44.023438 22.210938 C 44.027344 23.265625 44.027344 24.316406 44.03125 25.371094 C 44.035156 26.183594 44.035156 27 44.035156 27.8125 C 44.035156 28.296875 44.035156 28.785156 44.039062 29.269531 C 44.039062 29.726562 44.042969 30.1875 44.039062 30.644531 C 44.039062 30.8125 44.039062 30.976562 44.042969 31.144531 C 44.054688 33.0625 43.585938 34.640625 42.28125 36.09375 C 42.214844 36.171875 42.214844 36.171875 42.148438 36.253906 C 41.171875 37.328125 39.554688 38.082031 38.113281 38.167969 C 37.53125 38.1875 36.949219 38.179688 36.367188 38.171875 C 36.191406 38.171875 36.011719 38.167969 35.835938 38.167969 C 35.40625 38.167969 34.976562 38.160156 34.546875 38.15625 C 34.546875 38.238281 34.546875 38.238281 34.546875 38.320312 C 34.554688 38.886719 34.558594 39.457031 34.5625 40.023438 C 34.5625 40.234375 34.5625 40.445312 34.566406 40.65625 C 34.570312 40.960938 34.570312 41.265625 34.570312 41.570312 C 34.574219 41.664062 34.574219 41.757812 34.574219 41.855469 C 34.578125 42.472656 34.542969 43.089844 34.136719 43.582031 C 34.085938 43.621094 34.035156 43.660156 33.984375 43.699219 C 33.929688 43.738281 33.878906 43.777344 33.828125 43.820312 C 33.40625 44.101562 32.96875 44.085938 32.484375 44 C 31.988281 43.765625 31.554688 43.457031 31.109375 43.140625 C 30.953125 43.03125 30.792969 42.921875 30.636719 42.8125 C 30.296875 42.578125 29.957031 42.339844 29.617188 42.105469 C 29.207031 41.816406 28.789062 41.535156 28.371094 41.253906 C 27.660156 40.785156 26.960938 40.308594 26.257812 39.832031 C 26.089844 39.714844 25.917969 39.601562 25.742188 39.488281 C 25.527344 39.34375 25.34375 39.191406 25.152344 39.015625 C 23.9375 37.957031 22.5 38.105469 20.984375 38.132812 C 20.605469 38.136719 20.226562 38.136719 19.847656 38.136719 C 19.128906 38.136719 18.414062 38.140625 17.695312 38.148438 C 16.410156 38.164062 15.128906 38.167969 13.84375 38.167969 C 13.394531 38.171875 12.945312 38.175781 12.496094 38.179688 C 12.214844 38.183594 11.933594 38.183594 11.652344 38.183594 C 11.527344 38.1875 11.398438 38.1875 11.269531 38.191406 C 10.125 38.210938 8.988281 38.042969 7.964844 37.496094 C 7.910156 37.464844 7.851562 37.4375 7.792969 37.40625 C 6.136719 36.511719 5.105469 35.046875 4.546875 33.289062 C 4.386719 32.695312 4.367188 32.125 4.355469 31.511719 C 4.355469 31.421875 4.351562 31.328125 4.351562 31.230469 C 4.34375 30.9375 4.339844 30.640625 4.335938 30.347656 C 4.332031 30.144531 4.328125 29.945312 4.324219 29.746094 C 4.3125 29.253906 4.304688 28.765625 4.296875 28.273438 C 4.203125 28.226562 4.109375 28.183594 4.011719 28.136719 C 3.886719 28.074219 3.765625 28.011719 3.640625 27.953125 C 3.578125 27.921875 3.515625 27.890625 3.453125 27.859375 C 2.929688 27.601562 2.492188 27.292969 2.0625 26.898438 C 2.007812 26.851562 1.953125 26.800781 1.898438 26.75 C 0.835938 25.75 0.046875 24.214844 -0.0234375 22.746094 C -0.0390625 22.296875 -0.0351562 21.851562 -0.0351562 21.402344 C -0.0351562 21.230469 -0.0351562 21.058594 -0.0351562 20.886719 C -0.0390625 20.425781 -0.0390625 19.960938 -0.0390625 19.496094 C -0.0390625 19.109375 -0.0390625 18.722656 -0.0390625 18.332031 C -0.0390625 17.417969 -0.0390625 16.5 -0.0390625 15.582031 C -0.0390625 14.640625 -0.0390625 13.699219 -0.0390625 12.753906 C -0.0429688 11.941406 -0.0429688 11.132812 -0.0429688 10.320312 C -0.0429688 9.835938 -0.0429688 9.351562 -0.0429688 8.867188 C -0.046875 8.410156 -0.046875 7.957031 -0.0429688 7.5 C -0.0429688 7.335938 -0.0429688 7.167969 -0.0429688 7.003906 C -0.0546875 5.148438 0.355469 3.5625 1.632812 2.148438 C 1.691406 2.082031 1.746094 2.019531 1.804688 1.949219 C 3.097656 0.5625 4.804688 -0.0273438 6.671875 -0.0234375 Z M 4.46875 1.890625 C 4.375 1.9375 4.28125 1.980469 4.183594 2.03125 C 2.917969 2.679688 2.089844 3.796875 1.625 5.117188 C 1.398438 5.875 1.414062 6.617188 1.417969 7.402344 C 1.414062 7.5625 1.414062 7.726562 1.414062 7.890625 C 1.414062 8.328125 1.414062 8.769531 1.414062 9.210938 C 1.414062 9.671875 1.414062 10.132812 1.414062 10.597656 C 1.414062 11.375 1.414062 12.148438 1.417969 12.925781 C 1.417969 13.820312 1.417969 14.714844 1.414062 15.609375 C 1.414062 16.382812 1.414062 17.152344 1.414062 17.921875 C 1.414062 18.382812 1.414062 18.839844 1.414062 19.300781 C 1.414062 19.734375 1.414062 20.164062 1.414062 20.597656 C 1.417969 20.753906 1.417969 20.914062 1.414062 21.070312 C 1.40625 22.835938 1.738281 24.425781 3.019531 25.722656 C 4.101562 26.742188 5.375 27.179688 6.847656 27.179688 C 7.019531 27.179688 7.195312 27.183594 7.371094 27.183594 C 7.640625 27.1875 7.914062 27.1875 8.183594 27.1875 C 8.449219 27.191406 8.714844 27.191406 8.976562 27.195312 C 9.058594 27.195312 9.140625 27.195312 9.222656 27.195312 C 9.734375 27.203125 10.152344 27.265625 10.570312 27.585938 C 11.003906 28.105469 10.964844 28.644531 10.964844 29.300781 C 10.96875 29.40625 10.96875 29.511719 10.972656 29.621094 C 10.976562 29.957031 10.976562 30.292969 10.980469 30.632812 C 10.980469 30.859375 10.984375 31.089844 10.984375 31.320312 C 10.992188 31.878906 10.996094 32.441406 11 33 C 11.5 32.683594 12 32.367188 12.488281 32.035156 C 12.535156 32.003906 12.582031 31.972656 12.628906 31.9375 C 12.777344 31.835938 12.925781 31.738281 13.074219 31.636719 C 13.179688 31.5625 13.285156 31.492188 13.390625 31.421875 C 13.605469 31.273438 13.820312 31.125 14.039062 30.980469 C 14.332031 30.78125 14.625 30.578125 14.917969 30.378906 C 15.964844 29.667969 15.964844 29.667969 17.011719 28.953125 C 17.09375 28.898438 17.179688 28.839844 17.261719 28.78125 C 17.417969 28.675781 17.570312 28.574219 17.722656 28.46875 C 17.863281 28.371094 18 28.277344 18.140625 28.183594 C 18.3125 28.066406 18.484375 27.945312 18.648438 27.820312 C 19.410156 27.257812 20.054688 27.132812 20.996094 27.152344 C 21.132812 27.152344 21.269531 27.152344 21.402344 27.152344 C 21.695312 27.148438 21.984375 27.152344 22.277344 27.15625 C 22.738281 27.160156 23.195312 27.160156 23.65625 27.160156 C 24.386719 27.160156 25.117188 27.164062 25.847656 27.167969 C 27.152344 27.175781 28.457031 27.179688 29.761719 27.179688 C 30.21875 27.179688 30.675781 27.183594 31.128906 27.1875 C 31.417969 27.1875 31.703125 27.191406 31.988281 27.191406 C 32.117188 27.191406 32.25 27.191406 32.378906 27.195312 C 34.058594 27.214844 35.507812 26.765625 36.742188 25.582031 C 37.074219 25.21875 37.324219 24.835938 37.554688 24.40625 C 37.605469 24.3125 37.605469 24.3125 37.660156 24.214844 C 38.175781 23.148438 38.195312 22.039062 38.191406 20.882812 C 38.191406 20.722656 38.191406 20.558594 38.191406 20.398438 C 38.191406 19.960938 38.191406 19.523438 38.191406 19.085938 C 38.191406 18.628906 38.191406 18.167969 38.191406 17.710938 C 38.191406 16.941406 38.191406 16.171875 38.191406 15.402344 C 38.1875 14.515625 38.1875 13.625 38.191406 12.738281 C 38.191406 11.972656 38.191406 11.207031 38.191406 10.445312 C 38.191406 9.988281 38.191406 9.53125 38.191406 9.078125 C 38.191406 8.648438 38.191406 8.21875 38.191406 7.789062 C 38.191406 7.632812 38.191406 7.476562 38.191406 7.320312 C 38.195312 5.671875 37.886719 4.238281 36.71875 3.011719 C 35.671875 1.96875 34.34375 1.445312 32.875 1.4375 C 32.769531 1.4375 32.664062 1.4375 32.554688 1.4375 C 32.4375 1.4375 32.324219 1.4375 32.207031 1.4375 C 31.894531 1.433594 31.578125 1.433594 31.265625 1.433594 C 30.925781 1.433594 30.585938 1.433594 30.246094 1.433594 C 29.503906 1.429688 28.761719 1.429688 28.019531 1.429688 C 27.558594 1.429688 27.09375 1.429688 26.628906 1.429688 C 25.34375 1.425781 24.058594 1.425781 22.773438 1.425781 C 22.691406 1.425781 22.609375 1.425781 22.523438 1.425781 C 22.355469 1.425781 22.191406 1.425781 22.023438 1.425781 C 21.941406 1.425781 21.859375 1.425781 21.773438 1.425781 C 21.691406 1.425781 21.609375 1.425781 21.523438 1.425781 C 20.183594 1.425781 18.839844 1.421875 17.5 1.417969 C 16.121094 1.414062 14.742188 1.414062 13.363281 1.414062 C 12.59375 1.414062 11.820312 1.414062 11.046875 1.410156 C 10.386719 1.40625 9.726562 1.40625 9.070312 1.410156 C 8.734375 1.410156 8.398438 1.410156 8.0625 1.40625 C 6.214844 1.363281 6.214844 1.363281 4.46875 1.890625 Z M 39.617188 11.515625 C 39.617188 11.601562 39.617188 11.601562 39.617188 11.6875 C 39.613281 13.089844 39.609375 14.488281 39.601562 15.886719 C 39.597656 16.5625 39.59375 17.238281 39.59375 17.914062 C 39.59375 18.503906 39.589844 19.097656 39.585938 19.6875 C 39.585938 20 39.582031 20.308594 39.582031 20.621094 C 39.582031 23.109375 39.582031 23.109375 39.1875 24.148438 C 39.136719 24.289062 39.136719 24.289062 39.082031 24.4375 C 38.480469 26.058594 37.191406 27.261719 35.652344 27.996094 C 34.617188 28.445312 33.644531 28.554688 32.527344 28.542969 C 32.390625 28.542969 32.257812 28.539062 32.125 28.539062 C 31.835938 28.539062 31.550781 28.535156 31.261719 28.535156 C 30.808594 28.53125 30.351562 28.527344 29.894531 28.527344 C 29.816406 28.527344 29.742188 28.527344 29.660156 28.527344 C 29.503906 28.527344 29.347656 28.527344 29.1875 28.527344 C 28.128906 28.523438 27.070312 28.523438 26.007812 28.511719 C 25.292969 28.503906 24.578125 28.503906 23.859375 28.503906 C 23.480469 28.503906 23.105469 28.503906 22.726562 28.496094 C 20.496094 28.4375 20.496094 28.4375 18.613281 29.523438 C 18.40625 29.710938 18.183594 29.855469 17.949219 30.003906 C 17.789062 30.113281 17.632812 30.222656 17.472656 30.332031 C 17.289062 30.457031 17.105469 30.582031 16.921875 30.707031 C 16.851562 30.753906 16.851562 30.753906 16.777344 30.804688 C 15.347656 31.777344 13.914062 32.75 12.476562 33.710938 C 12.390625 33.765625 12.304688 33.824219 12.214844 33.882812 C 12.136719 33.9375 12.058594 33.988281 11.976562 34.042969 C 11.90625 34.089844 11.839844 34.132812 11.769531 34.183594 C 11.378906 34.433594 11.023438 34.421875 10.570312 34.375 C 10.160156 34.246094 9.898438 34 9.695312 33.625 C 9.542969 33.207031 9.574219 32.757812 9.574219 32.316406 C 9.570312 32.210938 9.570312 32.105469 9.566406 31.996094 C 9.5625 31.660156 9.5625 31.324219 9.5625 30.984375 C 9.558594 30.757812 9.554688 30.527344 9.554688 30.296875 C 9.546875 29.738281 9.542969 29.175781 9.539062 28.617188 C 8.320312 28.617188 7.101562 28.617188 5.84375 28.617188 C 5.835938 29.183594 5.824219 29.75 5.816406 30.335938 C 5.8125 30.511719 5.808594 30.6875 5.804688 30.867188 C 5.785156 32.570312 6.21875 34.019531 7.417969 35.277344 C 8.726562 36.496094 10.300781 36.722656 12.015625 36.71875 C 12.148438 36.71875 12.285156 36.71875 12.417969 36.71875 C 12.703125 36.71875 12.988281 36.71875 13.273438 36.71875 C 13.726562 36.71875 14.179688 36.71875 14.632812 36.722656 C 15.917969 36.726562 17.203125 36.726562 18.488281 36.726562 C 19.199219 36.726562 19.910156 36.730469 20.621094 36.734375 C 21.070312 36.734375 21.519531 36.734375 21.96875 36.734375 C 22.25 36.734375 22.527344 36.734375 22.808594 36.738281 C 22.9375 36.738281 23.066406 36.738281 23.195312 36.734375 C 23.878906 36.730469 24.417969 36.746094 25.007812 37.125 C 25.078125 37.167969 25.144531 37.210938 25.214844 37.253906 C 25.273438 37.296875 25.328125 37.335938 25.386719 37.378906 C 25.453125 37.425781 25.519531 37.472656 25.585938 37.523438 C 25.65625 37.570312 25.726562 37.621094 25.796875 37.671875 C 26.394531 38.097656 26.992188 38.511719 27.601562 38.914062 C 28.265625 39.351562 28.925781 39.796875 29.585938 40.246094 C 29.671875 40.304688 29.761719 40.367188 29.851562 40.429688 C 30.230469 40.683594 30.605469 40.941406 30.980469 41.199219 C 31.230469 41.367188 31.484375 41.539062 31.734375 41.710938 C 31.875 41.808594 32.015625 41.902344 32.160156 42 C 32.242188 42.058594 32.328125 42.117188 32.417969 42.175781 C 32.492188 42.226562 32.566406 42.28125 32.644531 42.332031 C 32.820312 42.453125 32.820312 42.453125 33 42.539062 C 33 42.449219 33 42.449219 33 42.359375 C 33.003906 41.746094 33.007812 41.132812 33.011719 40.519531 C 33.015625 40.292969 33.015625 40.0625 33.015625 39.835938 C 33.019531 39.503906 33.019531 39.175781 33.023438 38.847656 C 33.023438 38.746094 33.023438 38.644531 33.023438 38.539062 C 33.035156 37.933594 33.097656 37.496094 33.515625 37.039062 C 33.890625 36.699219 34.320312 36.746094 34.804688 36.75 C 34.976562 36.746094 35.148438 36.746094 35.320312 36.746094 C 35.589844 36.742188 35.859375 36.742188 36.128906 36.742188 C 38.015625 36.742188 39.640625 36.535156 41.066406 35.171875 C 42.347656 33.824219 42.59375 32.191406 42.582031 30.40625 C 42.582031 30.246094 42.582031 30.085938 42.582031 29.925781 C 42.582031 29.496094 42.582031 29.066406 42.578125 28.632812 C 42.578125 28.179688 42.578125 27.726562 42.578125 27.273438 C 42.578125 26.515625 42.578125 25.753906 42.574219 24.996094 C 42.570312 24.117188 42.570312 23.242188 42.570312 22.363281 C 42.570312 21.425781 42.570312 20.492188 42.566406 19.554688 C 42.566406 19.285156 42.566406 19.015625 42.566406 18.746094 C 42.566406 18.324219 42.566406 17.902344 42.566406 17.480469 C 42.5625 17.324219 42.5625 17.167969 42.5625 17.015625 C 42.570312 15.414062 42.570312 15.414062 42.0625 13.910156 C 42.03125 13.851562 42 13.796875 41.96875 13.734375 C 41.6875 13.210938 41.335938 12.785156 40.90625 12.375 C 40.855469 12.324219 40.800781 12.273438 40.746094 12.21875 C 40.496094 11.992188 40.25 11.820312 39.941406 11.671875 C 39.851562 11.628906 39.851562 11.628906 39.757812 11.582031 C 39.710938 11.5625 39.664062 11.539062 39.617188 11.515625 Z M 39.617188 11.515625 "/>
<path style=" stroke:none;fill-rule:nonzero;fill:rgb(0.784314%,45.882353%,72.54902%);fill-opacity:1;" d="M 34.03125 1.632812 C 35.09375 1.652344 36.003906 2.296875 36.726562 3.023438 C 37.664062 4.03125 38.183594 5.265625 38.179688 6.644531 C 38.179688 6.710938 38.179688 6.777344 38.179688 6.847656 C 38.179688 7.070312 38.179688 7.292969 38.179688 7.519531 C 38.183594 7.679688 38.183594 7.839844 38.183594 8.003906 C 38.183594 8.4375 38.183594 8.875 38.183594 9.3125 C 38.183594 9.585938 38.183594 9.859375 38.1875 10.132812 C 38.1875 11.085938 38.1875 12.042969 38.1875 13 C 38.1875 13.886719 38.191406 14.773438 38.191406 15.664062 C 38.195312 16.425781 38.195312 17.191406 38.195312 17.957031 C 38.195312 18.410156 38.195312 18.867188 38.199219 19.320312 C 38.199219 19.75 38.199219 20.179688 38.199219 20.609375 C 38.199219 20.765625 38.199219 20.921875 38.199219 21.078125 C 38.210938 22.863281 37.859375 24.410156 36.582031 25.742188 C 35.808594 26.449219 34.882812 26.886719 33.859375 27.070312 C 34.105469 26.816406 34.355469 26.582031 34.621094 26.355469 C 35.539062 25.550781 36.132812 24.5625 36.4375 23.375 C 36.414062 23.421875 36.390625 23.472656 36.363281 23.519531 C 35.808594 24.578125 35.113281 25.179688 33.972656 25.554688 C 33.066406 25.808594 33.066406 25.808594 32.582031 25.578125 C 32.398438 25.4375 32.398438 25.4375 32.3125 25.265625 C 32.261719 24.644531 32.261719 24.644531 32.457031 24.390625 C 32.695312 24.203125 32.839844 24.183594 33.140625 24.160156 C 33.761719 24.070312 34.246094 23.855469 34.6875 23.402344 C 35.003906 22.960938 35.074219 22.457031 35.160156 21.929688 C 35.242188 21.621094 35.324219 21.5 35.578125 21.3125 C 36.074219 21.257812 36.269531 21.304688 36.695312 21.570312 C 36.691406 19.542969 36.6875 17.515625 36.679688 15.484375 C 36.675781 14.542969 36.671875 13.601562 36.671875 12.660156 C 36.671875 11.839844 36.667969 11.015625 36.664062 10.195312 C 36.664062 9.761719 36.660156 9.328125 36.660156 8.890625 C 36.660156 8.484375 36.660156 8.074219 36.65625 7.664062 C 36.65625 7.511719 36.65625 7.363281 36.65625 7.214844 C 36.664062 5.328125 36.148438 3.695312 34.804688 2.320312 C 34.597656 2.144531 34.390625 1.980469 34.171875 1.824219 C 34.101562 1.769531 34.101562 1.769531 34.03125 1.71875 C 34.03125 1.691406 34.03125 1.660156 34.03125 1.632812 Z M 34.03125 1.632812 "/>
<path style=" stroke:none;fill-rule:nonzero;fill:rgb(98.823529%,74.901961%,2.745098%);fill-opacity:1;" d="M 39.617188 11.515625 C 40.242188 11.78125 40.683594 12.160156 41.164062 12.632812 C 41.210938 12.675781 41.261719 12.722656 41.308594 12.769531 C 41.628906 13.097656 41.835938 13.492188 42.046875 13.894531 C 42.074219 13.949219 42.105469 14.003906 42.132812 14.058594 C 42.625 15.046875 42.566406 16.167969 42.5625 17.242188 C 42.566406 17.402344 42.566406 17.5625 42.566406 17.722656 C 42.566406 18.152344 42.566406 18.582031 42.566406 19.015625 C 42.566406 19.285156 42.566406 19.554688 42.570312 19.824219 C 42.570312 20.769531 42.570312 21.710938 42.570312 22.65625 C 42.570312 23.53125 42.574219 24.410156 42.574219 25.285156 C 42.578125 26.039062 42.578125 26.796875 42.578125 27.550781 C 42.578125 28 42.578125 28.449219 42.582031 28.902344 C 42.582031 29.324219 42.582031 29.746094 42.582031 30.171875 C 42.582031 30.324219 42.582031 30.480469 42.582031 30.632812 C 42.59375 32.316406 42.300781 33.863281 41.109375 35.132812 C 40.324219 35.929688 39.332031 36.414062 38.242188 36.609375 C 38.464844 36.378906 38.691406 36.183594 38.953125 35.996094 C 39.777344 35.355469 40.21875 34.53125 40.648438 33.601562 C 40.355469 33.699219 40.308594 33.769531 40.128906 34.003906 C 39.558594 34.671875 38.746094 35.09375 37.871094 35.175781 C 37.109375 35.203125 37.109375 35.203125 36.835938 34.996094 C 36.6875 34.792969 36.648438 34.707031 36.652344 34.460938 C 36.652344 34.402344 36.652344 34.347656 36.648438 34.289062 C 36.71875 34.035156 36.832031 33.933594 37.039062 33.773438 C 37.269531 33.71875 37.269531 33.71875 37.523438 33.699219 C 38.140625 33.609375 38.664062 33.402344 39.074219 32.914062 C 39.179688 32.746094 39.273438 32.578125 39.359375 32.398438 C 39.394531 32.328125 39.429688 32.261719 39.46875 32.1875 C 39.527344 31.976562 39.546875 31.796875 39.5625 31.578125 C 39.589844 31.316406 39.613281 31.203125 39.75 30.976562 C 40.042969 30.800781 40.316406 30.78125 40.648438 30.851562 C 40.765625 30.933594 40.878906 31.019531 40.992188 31.109375 C 41 29.078125 41.003906 27.042969 41.003906 25.011719 C 41.007812 24.066406 41.007812 23.125 41.011719 22.179688 C 41.015625 21.355469 41.015625 20.535156 41.015625 19.710938 C 41.015625 19.273438 41.015625 18.839844 41.019531 18.40625 C 41.019531 17.992188 41.023438 17.582031 41.019531 17.171875 C 41.019531 17.023438 41.023438 16.871094 41.023438 16.722656 C 41.03125 15.277344 40.796875 13.992188 39.933594 12.789062 C 39.613281 12.332031 39.542969 12.066406 39.617188 11.515625 Z M 39.617188 11.515625 "/>
<path style=" stroke:none;fill-rule:nonzero;fill:rgb(1.568627%,1.176471%,0%);fill-opacity:1;" d="M 40.648438 30.851562 C 40.90625 31.011719 40.90625 31.011719 41.078125 31.28125 C 41.257812 32.054688 40.90625 32.921875 40.507812 33.574219 C 40.363281 33.765625 40.214844 33.941406 40.046875 34.117188 C 40 34.164062 39.957031 34.214844 39.90625 34.261719 C 39.277344 34.859375 38.453125 35.15625 37.597656 35.175781 C 37.5 35.179688 37.40625 35.183594 37.304688 35.183594 C 37.039062 35.148438 37.039062 35.148438 36.835938 34.996094 C 36.6875 34.792969 36.648438 34.707031 36.652344 34.460938 C 36.652344 34.402344 36.652344 34.347656 36.648438 34.289062 C 36.71875 34.035156 36.832031 33.933594 37.039062 33.773438 C 37.269531 33.71875 37.269531 33.71875 37.523438 33.699219 C 38.140625 33.609375 38.664062 33.402344 39.074219 32.914062 C 39.179688 32.746094 39.273438 32.578125 39.359375 32.398438 C 39.394531 32.328125 39.429688 32.261719 39.46875 32.1875 C 39.527344 31.976562 39.546875 31.796875 39.5625 31.578125 C 39.589844 31.316406 39.613281 31.203125 39.75 30.976562 C 40.050781 30.800781 40.316406 30.777344 40.648438 30.851562 Z M 40.648438 30.851562 "/>
<path style=" stroke:none;fill-rule:nonzero;fill:rgb(0%,0.784314%,1.176471%);fill-opacity:1;" d="M 7.042969 3.039062 C 7.21875 3.179688 7.21875 3.179688 7.304688 3.351562 C 7.34375 3.703125 7.34375 3.890625 7.15625 4.195312 C 6.863281 4.390625 6.722656 4.417969 6.382812 4.464844 C 5.75 4.546875 5.34375 4.773438 4.914062 5.238281 C 4.574219 5.691406 4.5 6.09375 4.429688 6.644531 C 4.382812 6.875 4.382812 6.875 4.195312 7.15625 C 3.882812 7.347656 3.710938 7.363281 3.351562 7.304688 C 3.148438 7.144531 3.035156 7.019531 2.921875 6.789062 C 2.84375 5.941406 3.125 5.078125 3.625 4.394531 C 4.375 3.519531 5.820312 2.46875 7.042969 3.039062 Z M 7.042969 3.039062 "/>
<path style=" stroke:none;fill-rule:nonzero;fill:rgb(0%,0.784314%,1.176471%);fill-opacity:1;" d="M 35.921875 21.269531 C 35.980469 21.269531 36.035156 21.269531 36.09375 21.265625 C 36.347656 21.335938 36.449219 21.449219 36.609375 21.65625 C 36.777344 22.550781 36.496094 23.375 36.03125 24.125 C 35.394531 25.015625 34.496094 25.5 33.429688 25.695312 C 32.996094 25.730469 32.746094 25.703125 32.398438 25.4375 C 32.265625 25.167969 32.253906 24.871094 32.3125 24.578125 C 32.488281 24.34375 32.597656 24.246094 32.886719 24.179688 C 32.96875 24.175781 33.054688 24.167969 33.140625 24.160156 C 33.761719 24.070312 34.246094 23.855469 34.6875 23.402344 C 35.003906 22.960938 35.074219 22.457031 35.160156 21.929688 C 35.273438 21.515625 35.476562 21.261719 35.921875 21.269531 Z M 35.921875 21.269531 "/>
<path style=" stroke:none;fill-rule:nonzero;fill:rgb(99.215686%,75.294118%,2.745098%);fill-opacity:1;" d="M 8.078125 28.617188 C 8.558594 28.617188 9.042969 28.617188 9.539062 28.617188 C 9.546875 29.238281 9.558594 29.863281 9.5625 30.484375 C 9.5625 30.777344 9.566406 31.066406 9.570312 31.355469 C 9.578125 31.6875 9.578125 32.019531 9.582031 32.351562 C 9.582031 32.457031 9.585938 32.558594 9.585938 32.667969 C 9.585938 32.761719 9.585938 32.859375 9.585938 32.957031 C 9.589844 33.042969 9.589844 33.128906 9.589844 33.214844 C 9.539062 33.429688 9.539062 33.429688 9.332031 33.585938 C 8.988281 33.742188 8.796875 33.734375 8.421875 33.6875 C 8.183594 33.5 8.089844 33.34375 8.046875 33.039062 C 8.039062 32.757812 8.039062 32.480469 8.042969 32.199219 C 8.046875 32.097656 8.046875 31.996094 8.046875 31.890625 C 8.046875 31.5625 8.050781 31.238281 8.054688 30.910156 C 8.058594 30.6875 8.058594 30.46875 8.0625 30.246094 C 8.066406 29.703125 8.070312 29.160156 8.078125 28.617188 Z M 8.078125 28.617188 "/>
<path style=" stroke:none;fill-rule:nonzero;fill:rgb(99.215686%,75.294118%,2.745098%);fill-opacity:1;" d="M 32.644531 37.355469 C 32.746094 37.359375 32.84375 37.363281 32.945312 37.367188 C 33.019531 37.371094 33.09375 37.378906 33.171875 37.382812 C 33.15625 37.429688 33.144531 37.476562 33.128906 37.523438 C 33.078125 37.757812 33.070312 37.96875 33.066406 38.207031 C 33.066406 38.304688 33.066406 38.398438 33.0625 38.5 C 33.0625 38.65625 33.0625 38.65625 33.058594 38.8125 C 33.058594 38.917969 33.054688 39.027344 33.054688 39.136719 C 33.046875 39.417969 33.042969 39.699219 33.039062 39.980469 C 33.035156 40.269531 33.03125 40.558594 33.027344 40.84375 C 33.015625 41.410156 33.007812 41.972656 33 42.539062 C 32.765625 42.394531 32.535156 42.246094 32.304688 42.097656 C 32.160156 42.003906 32.011719 41.914062 31.859375 41.832031 C 31.636719 41.699219 31.476562 41.585938 31.402344 41.332031 C 31.382812 41.109375 31.386719 40.894531 31.394531 40.671875 C 31.398438 40.59375 31.398438 40.511719 31.398438 40.429688 C 31.402344 40.257812 31.410156 40.089844 31.417969 39.921875 C 31.425781 39.660156 31.429688 39.402344 31.433594 39.144531 C 31.4375 38.976562 31.445312 38.8125 31.449219 38.648438 C 31.449219 38.570312 31.449219 38.492188 31.453125 38.414062 C 31.476562 37.894531 31.476562 37.894531 31.648438 37.667969 C 31.976562 37.378906 32.21875 37.335938 32.644531 37.355469 Z M 32.644531 37.355469 "/>
<path style=" stroke:none;fill-rule:nonzero;fill:rgb(0.784314%,45.882353%,72.156863%);fill-opacity:1;" d="M 18.476562 27.84375 C 18.144531 28.203125 17.789062 28.460938 17.382812 28.726562 C 17.242188 28.816406 17.101562 28.90625 16.960938 29 C 16.851562 29.074219 16.851562 29.074219 16.734375 29.148438 C 16.316406 29.425781 15.898438 29.710938 15.480469 29.996094 C 15.296875 30.121094 15.113281 30.246094 14.929688 30.371094 C 14.6875 30.539062 14.441406 30.703125 14.195312 30.871094 C 13.875 31.089844 13.550781 31.308594 13.230469 31.527344 C 13.128906 31.597656 13.023438 31.667969 12.921875 31.738281 C 12.289062 32.171875 11.648438 32.59375 11 33 C 10.976562 32.722656 10.976562 32.722656 11 32.398438 C 11.164062 32.210938 11.164062 32.210938 11.402344 32.050781 C 11.449219 32.019531 11.492188 31.984375 11.539062 31.953125 C 11.703125 31.839844 11.867188 31.734375 12.03125 31.625 C 12.164062 31.535156 12.292969 31.449219 12.425781 31.359375 C 12.726562 31.15625 13.03125 30.957031 13.335938 30.753906 C 13.867188 30.402344 14.394531 30.042969 14.921875 29.6875 C 15.054688 29.59375 15.054688 29.59375 15.195312 29.5 C 15.617188 29.214844 16.039062 28.921875 16.453125 28.621094 C 16.527344 28.566406 16.597656 28.515625 16.671875 28.460938 C 16.808594 28.363281 16.9375 28.265625 17.070312 28.167969 C 17.539062 27.832031 17.90625 27.785156 18.476562 27.84375 Z M 18.476562 27.84375 "/>
<path style=" stroke:none;fill-rule:nonzero;fill:rgb(0.392157%,60.392157%,87.843137%);fill-opacity:1;" d="M 36.4375 23.203125 C 36.550781 23.550781 36.488281 23.753906 36.355469 24.082031 C 36.265625 24.234375 36.265625 24.234375 36.035156 24.363281 C 35.96875 24.378906 35.902344 24.390625 35.835938 24.40625 C 36.035156 24.003906 36.238281 23.605469 36.4375 23.203125 Z M 36.4375 23.203125 "/>
</g>
</svg>
